/* XPM */
static char *_44dd03fb4a94408837c384fd94651fdUhN3kuqivgiE2tUa[] = {
/* columns rows colors chars-per-pixel */
"64 64 256 2 ",
"   c None",
".  c #371504",
"X  c #4D1C00",
"o  c #582501",
"O  c #4F2B05",
"+  c #632B02",
"@  c #6B2E02",
"#  c #682500",
"$  c #742C01",
"%  c #7A2901",
"&  c #6D3302",
"*  c #673703",
"=  c #743302",
"-  c #7C3302",
";  c #743B04",
":  c #7B3C04",
">  c #6A1E00",
",  c #7C4405",
"<  c #7B4506",
"1  c #765116",
"2  c #6B5429",
"3  c #67532C",
"4  c #58544D",
"5  c #6B6350",
"6  c #646464",
"7  c #737373",
"8  c #684F45",
"9  c #872A01",
"0  c #833302",
"q  c #843C03",
"w  c #8C3C04",
"e  c #8B3402",
"r  c #943C04",
"t  c #9D3C03",
"y  c #943402",
"u  c #922D01",
"i  c #B82A00",
"p  c #A33C03",
"a  c #AA3904",
"s  c #BD3B00",
"d  c #B73801",
"f  c #C53901",
"g  c #D93701",
"h  c #C22D00",
"j  c #E53B00",
"k  c #824305",
"l  c #8C4305",
"z  c #844A06",
"x  c #8A4C06",
"c  c #894809",
"v  c #984706",
"b  c #995506",
"n  c #8B5207",
"m  c #A74906",
"M  c #B34403",
"N  c #BD4B02",
"B  c #B94605",
"V  c #A85308",
"C  c #B85806",
"Z  c #BC5511",
"A  c #9B6A14",
"S  c #976E13",
"D  c #A36A0A",
"F  c #B76805",
"G  c #AD760C",
"H  c #B7790B",
"J  c #AB7517",
"K  c #B77813",
"L  c #B26915",
"P  c #946E26",
"I  c #C34501",
"U  c #CA4400",
"Y  c #C54B02",
"T  c #CA4C02",
"R  c #C84D08",
"E  c #D74802",
"W  c #C45303",
"Q  c #CB5303",
"!  c #C55A03",
"~  c #CD5B04",
"^  c #CC5C0A",
"/  c #C7580B",
"(  c #D35401",
")  c #D25D03",
"_  c #DB5806",
"`  c #C65410",
"'  c #E44C02",
"]  c #E94A01",
"[  c #E75803",
"{  c #F15401",
"}  c #CC6304",
"|  c #CD6B04",
" . c #CD6A0B",
".. c #C86608",
"X. c #D36304",
"o. c #D46C04",
"O. c #DA6C02",
"+. c #D36B0B",
"@. c #D86507",
"#. c #CD7205",
"$. c #CA7908",
"%. c #D37305",
"&. c #DB7303",
"*. c #D57B04",
"=. c #DB7D04",
"-. c #D7770A",
";. c #D57B14",
":. c #CF6214",
">. c #E76804",
",. c #F76906",
"<. c #E27C03",
"1. c #E87805",
"2. c #F37B03",
"3. c #F87604",
"4. c #EF7511",
"5. c #D17724",
"6. c #9E7449",
"7. c #B9870C",
"8. c #B18714",
"9. c #BB912F",
"0. c #CA850A",
"q. c #D48305",
"w. c #DA8404",
"e. c #D58B05",
"r. c #DB8B05",
"t. c #D9870A",
"y. c #DB9206",
"u. c #DD9C06",
"i. c #DD9C09",
"p. c #D79508",
"a. c #D78716",
"s. c #DA9517",
"d. c #C99311",
"f. c #E38303",
"g. c #EB8403",
"h. c #E48C04",
"j. c #EB8B06",
"k. c #F48303",
"l. c #F48C03",
"z. c #FD8C06",
"x. c #E39405",
"c. c #EC9303",
"v. c #E49C03",
"b. c #EC9C04",
"n. c #E4940A",
"m. c #E89C0A",
"M. c #F49403",
"N. c #F59C03",
"B. c #FA9A07",
"V. c #E58615",
"C. c #E49B1D",
"Z. c #E5971B",
"A. c #F89614",
"S. c #DDA30A",
"D. c #DCA80A",
"F. c #DAAD12",
"G. c #ECA404",
"H. c #E4A409",
"J. c #EBA40D",
"K. c #EBAC0B",
"L. c #E4A806",
"P. c #F4A303",
"I. c #F5AC03",
"U. c #FDAC02",
"Y. c #F8A708",
"T. c #E4B20A",
"R. c #E4BA0D",
"E. c #EABB0B",
"W. c #EBB509",
"Q. c #F5B505",
"!. c #FDB403",
"~. c #F5BB05",
"^. c #FDBB04",
"/. c #F3B30B",
"(. c #F6BC0B",
"). c #FCBB0A",
"_. c #FDB40A",
"`. c #EAA817",
"'. c #F3AD15",
"]. c #ECB514",
"[. c #F4B816",
"{. c #D68D2B",
"}. c #E39922",
"|. c #D4AE31",
" X c #ECAB24",
".X c #E6A724",
"XX c #EDB426",
"oX c #F1B424",
"OX c #F1B528",
"+X c #F3BC2A",
"@X c #F4BB25",
"#X c #EDB134",
"$X c #EBC30C",
"%X c #EDC70D",
"&X c #F5C306",
"*X c #FCC303",
"=X c #F4C40B",
"-X c #FCC40B",
";X c #F4CC0B",
":X c #FBCA0C",
">X c #FACB05",
",X c #F4D30D",
"<X c #FAD30C",
"1X c #FADB0D",
"2X c #FDD404",
"3X c #EBC514",
"4X c #F4C313",
"5X c #F3C419",
"6X c #F3CA1C",
"7X c #FBCC1B",
"8X c #FAC914",
"9X c #EED214",
"0X c #F3D412",
"qX c #FAD412",
"wX c #F4DB14",
"eX c #FAD41C",
"rX c #F5DD1B",
"tX c #FDDB1B",
"yX c #F8D716",
"uX c #FAE30E",
"iX c #FAE61A",
"pX c #FFFA1B",
"aX c #DCC82C",
"sX c #ECC528",
"dX c #F4C42B",
"fX c #F5CC2D",
"gX c #F7C827",
"hX c #F6DD23",
"jX c #F6D32C",
"kX c #F9D829",
"lX c #F5CD32",
"zX c #F6C838",
"xX c #F6DB33",
"cX c #F8D837",
"vX c #F9E123",
"bX c #FBE52A",
"nX c #FDF727",
"mX c #F9E23A",
"MX c #F9E437",
"NX c #FEF637",
"BX c #B28245",
"VX c #E7B855",
"CX c #EFB743",
"ZX c #DB9741",
"AX c #EAC846",
"SX c #F7C843",
"DX c #F9DD43",
"FX c #F9D64B",
"GX c #F8D748",
"HX c #F5D854",
"JX c #EDCA5C",
"KX c #F9E549",
"LX c #FFFC49",
"PX c #FBE655",
"IX c #FFF651",
"UX c #F3DC60",
/* pixels */
"                                                          6.6.3 8 6.BX                                                          ",
"                                                P 7.i.(.>X&X>X2X>X).G.G.n.0.K J                                                 ",
"                                          J v.~.>X^.Q.b.h.<.&.O.O.&.&.1.1.2.3.k.l.w.L                                           ",
"                                    K p.!.!.N.f.O.T R R R / ^ ^ ^ ^ / Q Y T T T _ >.z.B.t.A                                     ",
"                                G h.N.l.&.) T / +.a.V.C.C.C.C.C.C.C.C.C.C.Z.a.+.~ T T _ 2.B.l.A                                 ",
"                              t.k.1.) ( ^  .s.C.}.`. X XXXOXOXOXOXOXOX X X X X X.XZ.;.~ U ( 2.U.h.                              ",
"                          0.l.>.( ~  .a.s.}..X.XOXOX+X+XfXlXlXfXzXlXzXdXzX+X+XOXXXoXoXXXZ.} Y ) B._.$.                          ",
"                        x.2.) X. .a.s.Z..X XXX.XOXOX+XdXfXoXdXcXjXzXzXcXSXcXSXzXzXdXOXOX+XoXZ.) U =.-XY.                        ",
"                      c.g.1.&.;.a.a.s..X.XXXXX#XOXoX+XlXA.3.A.+XjXlXjXlXcXDXGXFXFXHXSXzX+X+XdXXXV.f ^ ).-XH                     ",
"                  7.N.j.j.+...a.Z..X}..XV.V.'.XX+XdXdX'.3.3.>.,.A.<X).Y.-XeX7XfXcXGXHXFXSXdX+XdXdX`.T R [.1XD                   ",
"                0.P.b.N.^ M C  .;.a.}.}.2.2.P.N.A.oXlX>.[ / r m g.z.3.4.,.z.B._.:X<XkXPXFXFXzX+XdXdX[._ f oXiX0.                ",
"              D U.G.'./ s !  . .+.-.a.>.1./.Y.k.{ ' 4._ B t v v ^ R M B R @.>.4.z.3.B.fXPXGXHXGXlXdXlX@X@.f OXpXG               ",
"              U.K.[./ d ! .. .+.%.-.t.1.] >.4.,.T a s a r r R R B a r w r V Z ^ :.a :.,.CXPXFXFXFXfXdXfXdX@.h lXvX              ",
"            ^.U.gX..d W } }  .+.-.V.a.>.,.g E E I p B m - v N B @.:.M M V V C :.V c Z _ z.MXKXFXFXFXlXsXfXgX) f MXiX            ",
"          L.!.jXa.i W ~ ^ } +.+.-.a.1.>.E [ R d y a t - 0 B R / :.^ C v r c w v V c c L O.B.nXKXFXGXFXlXfXlX+XU ^ LX`.          ",
"        S !.6X.Xi I ^ ~ ~  .o.-.t.>.,.{ E B I E a t y $ t M m w 0 w v l = L :.L V v w c m _ Y.tXKXGXFXGXfXgXlX`.h }.NXb         ",
"        ^.).cXB d / ~ ~ }  .-.=.4.[ ] f [ ' a m m s t W >.Q p v q = r V m +.4. .c n v t Z 4.4.z.kXKXGXFXcXjXfXjXa.h GXkX        ",
"      7.^.MX5.i W Q Q ) X.o.-.[ ] { E a s p $ # m s T 3.,.[ E Q w = = 0 ^ 1./ v q b ` 4.4.[ :._ B.KXPXGXHXxXfXfXgXQ +.IXK       ",
"      !.gXzXi I Q Q ~ ^ X.o.=._ ' ,.E d 0 # t Y N y t a r r a w q z k v ..} m : : b m :.` m V Z >.gXKXKXGXDXjXfXjX`.h #XmX      ",
"    7.^.KX5.i W / Q ~ ~  .+.=.V.>.( s y y Y T a t r - + = l q $ $ = : m C V z : c b b n c c b b p G.NXFXKXGXxXjXjXfXX.^ IXJ     ",
"    I.gXAXd I R Q / ) X.+.&.1.>.' U y y _ ( y 0 e C v 0 m v l l : & & v m : : < c c c c z n x x w +.qXLXGXKXDXjXfXxX`.h SXzX    ",
"    !.GX{.i Y W Q Q ~ X.O.[ ' g g a e M B t e 9 Q >.( T m l q k , & : z l ; ; z c , , z n b z k : R !.NXKXDXKXcXkXlXfX( ;.IX    ",
"  S.^.HX` s Y Q Q ^ ^ ' j j ] ' E I s I t r v t I Q Y N w q q = ; ; : : , z & < z x c < n 1 < z z V 4.).bXmXKXxXkXfXxXn.U PX9.  ",
"  L.fXVXi I Y Q Q Q ) _ _ g g [ E I a 9 r r e e - = @ - w - ; & + & : - = : : ; < c < z < < z n c c _ z.4XmXMXxXjX6XgX[.f CXGX  ",
"  !.GX{.i Y Y Y Q ~ ) o.=.B g { ' a m p 0 - = & @ + $ e % # o o X o + # - - : ; < < < < , z x n c q F z.gXKXmXmXhX4X3X].( {.PX  ",
"8.Q.UX5.i U T Q Q ( X.@.&.X.,.' s a t e - = @ @ o - `.).$.V w u b b b e v v & * O < < < z z x k ; : r <.bXMXmXcXxXeX6X[.O.^ IXA ",
"d.).JX` f Y T Q Q ) ) X.1.>.{ f 9 % % $ $ @ @ + # f.tXqX<X:X_.Y.qXtXeXgXjX).F b @ o * < , , : , ; q l Y B.MXmXmXxX6X6X5Xf.Y HX{.",
"D.@XJXf I T T T Q ~ X.O.@.{ E a 9 % - $ @ & # o v ).:X).).-X<X1XqXkXxXbXMXbX1XyXK.D @ + & ; : < z c l Y L sXNXmXMXrX6X5Xn.U AXVX",
"L.fXVXf I T T Q Q ( X.O.E ] U y 9 e % = $ & + o *.-X(.Q.(.-X=X:X:XkXjXkXkXqX1XbXnXiX[.m + < : < 1 z v C x aXNXmXmXhX6X6Xm.U CXAX",
"v.cXVXh I T T T Q ) @.! f ,.E u % 0 = = & @ o = M.).B.Y.&X&X-X&X:XjXKXcXtXqX1X1X1XiXpX:XV o ; < = q v b v sXnXxXmXkXyX3X`.U #XAX",
"b.zXVXi I Y T Q ( ~ O.Q E ,.f 9 $ $ = = & @ X V _.Y.k.B._.Q.).*X8XDXKXDXxXqX<X1X1X1XuX1X<.+ * ; ; l l # J bXbXxXmXhXyX5X`.E #XAX",
"v.GXVXi U Y T T Q ) X.@.1.>.[ M % # $ # + o o =.).k.3.U._.Q.Q.^.eXDXKXcXkX;X<X<XwX1X<X-X#.o * ; , c l 8.nXbXvXMXxXhXyX4XJ.U #XAX",
"b.GXVXi U Y T T Q ~ ) O.&.<.f.l.F 9 B N > . + 2.z.2.2.m.G.Q.-XqXkXjXcXxXqX<XwX<X1X1X-XU.F X * < < < F.nXbXvXvXbXxXhXyX5XJ.U #XAX",
"v.cXVXi I Y T Q Q ( X.o.o.&.<.f.M.1.'.fX#.o b 3.k.P.P.].5X5XK.S.kXKXxXeX;X<XqX<X<X1X<X!.V O * ; * G nXiXhXhXvXvXMXhXyX3Xm.U CXAX",
"v.dXJXd I Y Y T ( Q ) @.O.1.1.=.<.'.DXKXdXm g.3.z.=XqXqX[.5X5XH.H.gXhXeXqXqXqXyXiX1XuXuXF X * * = d.pXiXiXhXvXvXxXhX9X3Xc.T FX|.",
"0.7XUXI f Y Y Q Q ~ ) X.o.&.<.<.1.OXcXkXs.Q z.2.P.:X/.N 0.S * K c.U.qXeXyXqXiXiX-Xi.T.T.n X o , t s.pXiXrXvXvXhXhXrX6X3X<.( HX|.",
"G ^.UX:.i Y Y T Q ~ ) X.O.O.&.<.<.`.cX7Xe.~ 3.3.Y.(.Q.&.'.S O d.>.P.&XqX;X<X=Xy.b G F.1XV z b w C c.iXiXrXiXvXhXvXeX9X[.O.+.IXJ ",
"  !.PX{.i U Y T T Q ~ X.o.&.&.<.<.h.@XkXy.Q 3.k.P.I.~.-XU.c.f.Y.U.~.&XyXyXl.Z.d.. S K e.M.-XpXr.) P.iXiXrXrXrXhXhX0X3XW.( {.IX  ",
"  P.GXVXi B Y Y T Q ~ ) X.O.&.=.f.<.j.[.$.Q k.l.P.Q.~.!.I.!._.4X;X-X~.yX=X3.Y.kXF t.h.L.~.qXiXiX4XqXrXrXrXrXrXiXrX9X3Xm.U CXDX  ",
"  p.8XHXY U Y Y Y Q Q ~ X.o.&.&.<.f.h.<.} &.M.2.P.&XgX6X8X6XxXkX=X^.&X<X(.M.P.^.).U.:X<X(.1X0XuXiXuXwXwXrXiXrXhXhX9XE.=.~ KX.X  ",
"  7.U.KX{.I ~ ! Q W Q Q X.X.O.&.&.f.f.x.<.1.2.l.P.Q.gXcXjXfXkX4XI.^.~.>XQ.k.M.>X;X,XuX~.(.0X,XwXwXwXwXwXrXrXrXrX9X3XK.( ;.LXS   ",
"    U.jXzXd } } X.} } } X.X.o.O.&.=.f.h.c.j.g.j.M.I.Q.(./.(.Q.M.I.&X&X&X~.,.2.;X>XqXwX=X=X;X,X,X,XwXwXwXwXrXrXrX3XR.h.U #XMX    ",
"    d.*XKX .I } } } +.o.%.%.%.&.&.&.=.w.c.c.b.g.2.j.M.N.Q.&XQ.P.Q.!.8XhX<XP.M.&X>XqXwX;X=X%X%X,XwXwXwXwXwXrXrX9X3XH.X...NXs.    ",
"      U.bX#Xd ~ } } } } o.%.=.=.w.=.=.f.f.h.c.1.>.2.1.<.P.P.I.I.I.K.(.5XP.N.I.~.;X;X<X=X%X%X%X%X,X,XwXwXwXwX9X3XF.r.U }.bX      ",
"      u.~.NX..N } } } } | o.%.=.w.t.t.h.t.=.j.<.j.M.! C >.>.1.>.G./.c.} ( l.U.!.Q.~.I.E.$X$X$X$X%X,XwX,XwXwX9XR.x.) ~ kXS.      ",
"        U.rXsXs ! } } } | o.%.*.=.=.w.h.n.$.w.N.N.k.O.q.s.2.>.@.b.G.c.&.Q @.@.N f.N.G.$XE.E.$X$X$X%X9X9XwX9XR.D.=.f .XtX        ",
"        d.U.nXs.s ..} } ..| o.%.-.=.w.w.x.0.C j.m.<.M.J.d.[.].'.'.K.b.k.2.@.) $.v.'.E.W.E.E.R.E.R.%X%X,X9X$XD.q.E +.tXi.        ",
"          N.E.nX! N } ..} | | %.-.=.=.w.w.x.| @.g.j.L./.J.].[.gXxXsXXXoXK.t./.-XK.T.T.T.W.R.W.R.R.R.$X%X3XD.q.) T [.-X          ",
"          P U.1XrXN W ..| | | #.%.*.=.=.w.h.t.} Q <.G.I.J.m.'.'.`.].sXxX`.r.Q.K.L.L.L.L.T.T.T.T.R.R.R.R.F.q.} U n.2XP           ",
"            J !.iX3XI C } ..| | #.*.*.q.q.w.x.-.M } c.G.I.c.l. X'.K.].'.j.M.x.u.u.L.D.L.D.D.T.T.R.F.R.R.q.} Y *.2X8.            ",
"              m.!.uX3XN ! | | | | %.*.*.w.w.r.x.C M h.G.m.G.'.'.'.[.'.c.l.=.e.H.L.u.u.u.D.D.D.D.D.D.D.0.} U %.*XK.              ",
"                x.!.uXR.N ! | #.#.%.*.*.*.q.=.x.$.M c.K.m.h.h.`.N.A.P.<.&.$.H.H.H.S.S.S.S.u.i.S.D.S.$.C U %.^.K.                ",
"                  e.Q.uX%X} ! #.%.%.*.*.q.*.w.w.y.C } [.K.b.&.} F } >.j.$.e.H.i.u.i.S.S.S.S.S.i.p.#.W T *.^.Q.                  ",
"                    e.U.,X2Xq.! | *.%.*.=.=.q.q.h.$.v n.5X[./.x.w.=.P.y...i.p.i.u.u.i.i.i.S.i.p.$.! ) r.>Xp.                    ",
"                      S P.~.2XL.| | *.*.=.w.w.t.q.n.F C M.].K./.(._.n.C e.v.y.y.p.p.y.y.p.p.q.| X.O.v.*Xd.                      ",
"                        1 v.G.%X&Xv.%.%.=.q.w.w.w.w.n.#.N O.O.&.<.o.F q.m.r.y.y.y.y.y.y.e.$.O.&.r.U.^.P                         ",
"                          8 7.M.K.%XW.v.w.q.w.w.w.r.r.r.*.*.| %.%...r.x.e.e.e.y.e.e.e.*.&.<.h.G.^.i.5                           ",
"                              2 q.m.W.&X~.G.h.w.=.w.w.w.r.r.y.r.y.y.r.r.r.e.r.q.q.w.=.h.m.I.!.G.2                               ",
"                                5 1 *.b.W.=X=XW.G.x.r.r.w.w.w.r.w.e.w.q.w.w.w.h.c.J./.~.^.H.P 5                                 ",
"                                    4 3 G x./.(.:X4X=X].K.K.H.m.v.m.H.J.J.].[.[.4X-XQ.7.2 5                                     ",
"                                        6 4 2 D 0.i./.8X5X8X8X6X8XeX7X5X8X-XT.p.G 1 4 7                                         ",
"                                              6 4 3 3 1 A A H 7.7.G D S 1 3 3 4 7                                               ",
"                                                      7 6 6 6 4 4 6 7 6 7                                                       ",
"                                                                                                                                "
};
