/* XPM */
static char *_e204854e9674987df05568c692692ce87q4PhfzFHVdXNRJ[] = {
/* columns rows colors chars-per-pixel */
"32 32 231 2 ",
"   c None",
".  c #3C3935",
"X  c #4C0D00",
"o  c #5B1C00",
"O  c #561C00",
"+  c #4D1800",
"@  c #582502",
"#  c #642901",
"$  c #6A2701",
"%  c #752C01",
"&  c #683303",
"*  c #743202",
"=  c #7B3402",
"-  c #733B05",
";  c #7B3B04",
":  c #433F38",
">  c #7B4506",
",  c #50472F",
"<  c #49443A",
"1  c #594E39",
"2  c #5C5434",
"3  c #665826",
"4  c #625633",
"5  c #675639",
"6  c #705C2A",
"7  c #77642A",
"8  c #78653B",
"9  c #444444",
"0  c #4A4A4A",
"q  c #494743",
"w  c #5A5341",
"e  c #505050",
"r  c #5C5C5C",
"t  c #524E45",
"y  c #665843",
"u  c #69675B",
"i  c #636363",
"p  c #6C6C6C",
"a  c #6A6965",
"s  c gray44",
"d  c #9A2B01",
"f  c #8B3B04",
"g  c #853905",
"h  c #9B3C03",
"j  c #963804",
"k  c #8A2D02",
"l  c #BD2F00",
"z  c #A43A04",
"x  c #B63401",
"c  c #BE3100",
"v  c #B73A03",
"b  c #C23D01",
"n  c #CA3F02",
"m  c #834A07",
"M  c #884708",
"N  c #9C5309",
"B  c #984305",
"V  c #A44C05",
"C  c #A74605",
"Z  c #BC4D05",
"A  c #B34806",
"S  c #A95705",
"D  c #BD5D0C",
"F  c #98630A",
"G  c #A16509",
"H  c #AD6E11",
"J  c #815D2E",
"K  c #886523",
"L  c #967B29",
"P  c #8D7533",
"I  c #B47C27",
"U  c #C44501",
"Y  c #C34B04",
"T  c #CA4E01",
"R  c #C1460A",
"E  c #D64B07",
"W  c #C35603",
"Q  c #CD5603",
"!  c #C55B04",
"~  c #CD5B03",
"^  c #C8560B",
"/  c #D45C03",
"(  c #D85902",
")  c #C95A11",
"_  c #E74C02",
"`  c #EB4B02",
"'  c #F04E01",
"]  c #EC5503",
"[  c #CD6404",
"{  c #CF6B05",
"}  c #C96D09",
"|  c #D56302",
" . c #D96203",
".. c #DC6C02",
"X. c #D36907",
"o. c #CC7404",
"O. c #C57707",
"+. c #D37304",
"@. c #DC7304",
"#. c #D47B05",
"$. c #DB7B04",
"%. c #D1720B",
"&. c #D47909",
"*. c #DA7C0A",
"=. c #CE6F16",
"-. c #E36C02",
";. c #EB6B04",
":. c #E76603",
">. c #F16F00",
",. c #EB7405",
"<. c #EB7C03",
"1. c #E57308",
"2. c #E97C0E",
"3. c #E37903",
"4. c #F47801",
"5. c #E27E11",
"6. c #EA7A13",
"7. c #DC7F29",
"8. c #9E801C",
"9. c #B18F1F",
"0. c #B69118",
"q. c #BF860C",
"w. c #99852C",
"e. c #A4862D",
"r. c #BF9123",
"t. c #BB9030",
"y. c #BB8330",
"u. c #CC880B",
"i. c #DB8405",
"p. c #D68905",
"a. c #DC8C04",
"s. c #DD8A0B",
"d. c #D78609",
"f. c #DB9A0B",
"g. c #D49A0A",
"h. c #DA8419",
"j. c #CE9716",
"k. c #D29A15",
"l. c #E38501",
"z. c #EC8504",
"x. c #E28B03",
"c. c #E98A09",
"v. c #F38202",
"b. c #F38C03",
"n. c #FA8C0C",
"m. c #E39105",
"M. c #EC9504",
"N. c #E5940A",
"B. c #E89D09",
"V. c #FD9202",
"C. c #F79B05",
"Z. c #E18C1D",
"A. c #E58812",
"S. c #E59618",
"D. c #F79315",
"F. c #DDA30A",
"G. c #DCAA0A",
"H. c #D9A216",
"J. c #DDB315",
"K. c #E3A40B",
"L. c #ECAD0E",
"P. c #E7A606",
"I. c #F4A305",
"U. c #FEA403",
"Y. c #F1A90C",
"T. c #F8A707",
"R. c #ECB40C",
"E. c #E4B70B",
"W. c #FBB904",
"Q. c #F8B708",
"!. c #ECAA16",
"~. c #FAA71A",
"^. c #EDB11A",
"/. c #F6BC19",
"(. c #DA8D2A",
"). c #CC9F22",
"_. c #DC972A",
"`. c #E3882A",
"'. c #E2982A",
"]. c #F79D22",
"[. c #CAAB29",
"{. c #D5B331",
"}. c #C6AA30",
"|. c #E7A524",
" X c #F8A726",
".X c #EAB92C",
"XX c #FBBD24",
"oX c #EBC30D",
"OX c #E4C30E",
"+X c #FEC403",
"@X c #FCCB06",
"#X c #F3CD0E",
"$X c #F9C60B",
"%X c #FDD40C",
"&X c #FAD709",
"*X c #E9CA14",
"=X c #F8C917",
"-X c #EFDB14",
";X c #F5DC13",
":X c #FBD818",
">X c #FFE60C",
",X c #FDE313",
"<X c #FFE914",
"1X c #F6E41C",
"2X c #FCE41A",
"3X c #F7E414",
"4X c #FFFA1A",
"5X c #FFCD2A",
"6X c #F9C726",
"7X c #EEDD22",
"8X c #FBD522",
"9X c #FBDA23",
"0X c #F9D62C",
"qX c #F9C736",
"wX c #FDD433",
"eX c #FBDC3C",
"rX c #FBDF35",
"tX c #EDC127",
"yX c #F8E223",
"uX c #F7E329",
"iX c #FFF627",
"pX c #FBE439",
"aX c #FCE937",
"sX c #FEF33A",
"dX c #FFFB3F",
"fX c #F9DA42",
"gX c #F8D846",
"hX c #FAE649",
"jX c #FFFF4E",
"kX c #FAE758",
"lX c #FBF357",
/* pixels */
"                            p i i a                             ",
"                      0 q w 8 8 y 8 5 < e                       ",
"                r < y I s.z.l.b.V.3.-. .D J : r                 ",
"              9 5 =.v.c.A.h.Z.'.Z.Z.Z.A.,.>.:.K t               ",
"            < I 4.1.h.|..X5X5X5XeXeXfXgX.X|.A.4.c.6             ",
"          4 M.>.&._.|.^.6XwXD.2.XX=X5XpXhXhXwX|.1.V.K           ",
"        < $X<.Z =.h.2.V.n.6.Z j Q ~  .n.C.qXkXfXtXA.C.L         ",
"      : $Xc.v ! %.s.:.] b d k A Q z g A v ) wXlXgX0XA.~.4       ",
"    s 9./.v Q X.*.1.] n z j A Z V B V D M f 4.0XkXfX0X2. Xu     ",
"    , :X) b / %.1.' x j z Z / A * g X.D M ) E 1.eXkXpX^.D.e.    ",
"    [. Xx Q X.*.;.U h z C h f M * M S > M S M j !.jXgXaXA.].u   ",
"  w 5X) b ~ ( _ _ v v h C Y j g * ; - > m > > - [ 8XhXaX^.].P   ",
"  7 XXb R /  .E _ U j = % f f o O o $ $ - m m > h T.sX0X:XD.y.  ",
"  e.].l T ^ @.;.n k % @ # F.R.O.j.j.j.G & @ m > = =.aXaX8Xi.'.  ",
"  }.`.b E / | _ z $ % + S %X%X>X2XsXiX2X*XG & - M j .XjX9Xx.(.  ",
"s {.(.c Q / | ] d o O @ d.T.T.+X8XhX8X&X4X%Xg & % N 7XsXuXx.(.i ",
"s {.7.c T Q @.<.[ S g # b.n.Q.$X0XhX#X&X>XW.; @ F 7XiXuXuXx.(.a ",
"  }.`.c T / | @.z.6X.XW V.Q.H.u.^.8X:X,X,XR.O X J.iX9XuXyXi._.  ",
"  w. Xc T Q | ..3.XXtX;.U.W.o.G M.@X:XF.G g.H S L.4XyXyX;Xs.'.  ",
"  4 5XR U T [ ..@.m.s.-.C.=X=X=X$X%XT.s.u.P.>X,X#X1X1XyXoXD.t.  ",
"  t 9Xh.U ~ ~ | @.3.l.z.M.$X9X=XQ.@XT.U.,X%X#X>X3X;X3X1Xa.~.8   ",
"    9.XXY [ { +.@.$.x.M.z.<.M.C.I.oXC.Q.&X#XoX#X;X;X1X*X@. Xu   ",
"    : ,Xh.U { { $.s.i.i.b.$.*.<.I.M.( 3.Y.R.oXoX#X3X-Xd.n.L     ",
"    s 8.:XW W { &.$.a.&.@.C.!.^.^.^.N.x.K.R.E.oXOX-Xf.:.Y.a     ",
"      q E.%XY ! +.#.i.a.! i.I.!.6X=XB.P.P.P.G.E.OXg.( U.2       ",
"        . R.$X[ ! o.#.x.} o.Q.c.s.z.$.f.F.F.F.G.O.Q C.3         ",
"          : E.+Xa.{ &.i.i.O.B.B.i.@.p.f.f.F.f.&.-.U.3           ",
"            . L W.T.x.$.i.#.{ s.a.d.p.p.p.i.l.V.g.2             ",
"              9 1 ).Y.W.I.B.m.i.$.a.m.B.T.T.B.7 0               ",
"                  9 1 P [.L.R.L.L.L.L.H.e.4 9                   ",
"                      0 : 9 9 e e 0 9 9 0                       ",
"                              p p                               "
};
