/* XPM */
static char *_3fae11f11364f59a1beb43ff555b884KhfOBvx1MYT5Qkzx[] = {
/* columns rows colors chars-per-pixel */
"16 16 185 2 ",
"   c None",
".  c #390A00",
"X  c #530D00",
"o  c #5E1900",
"O  c #7E1A00",
"+  c #5D2F05",
"@  c #6E2C00",
"#  c #772A01",
"$  c #743000",
"%  c #743504",
"&  c #7B4102",
"*  c #5A5A5A",
"=  c gray36",
"-  c gray37",
";  c #615649",
":  c #725A41",
">  c #635D56",
",  c #6C664D",
"<  c #64605A",
"1  c #606060",
"2  c #646464",
"3  c #656565",
"4  c gray40",
"5  c #686868",
"6  c #883002",
"7  c #873E04",
"8  c #9C3801",
"9  c #9C3803",
"0  c #A02B00",
"q  c #A63501",
"w  c #A33902",
"e  c #A63D02",
"r  c #BF3300",
"t  c #C63C02",
"y  c #8F4605",
"u  c #934A05",
"i  c #905106",
"p  c #98560B",
"a  c #9D560D",
"s  c #B54401",
"d  c #B14E02",
"f  c #B6690D",
"g  c #AE7C07",
"h  c #88632E",
"j  c #927F2F",
"k  c #856831",
"l  c #8B6837",
"z  c #88683F",
"x  c #897033",
"c  c #A97A38",
"v  c #C34100",
"b  c #C94400",
"n  c #CC4A00",
"m  c #D44300",
"M  c #C35303",
"N  c #C75705",
"B  c #CF5003",
"V  c #DE5203",
"C  c #DA5806",
"Z  c #CD5C15",
"A  c #E25F04",
"S  c #EB5F04",
"D  c #CC6704",
"F  c #C6610B",
"G  c #D26602",
"H  c #D66500",
"J  c #DC6305",
"K  c #DE6802",
"L  c #CD7704",
"P  c #D17705",
"I  c #D97801",
"U  c #DC7A02",
"Y  c #D9780E",
"T  c #DC7C0F",
"R  c #D46414",
"E  c #C37612",
"W  c #C67F18",
"Q  c #E67407",
"!  c #E57E03",
"~  c #F87E00",
"^  c #E37916",
"/  c #8E7049",
"(  c #957B42",
")  c #997D4F",
"_  c #9C7453",
"`  c #B48236",
"'  c #CB8907",
"]  c #C28608",
"[  c #C58B0A",
"{  c #D38704",
"}  c #D98205",
"|  c #D98106",
" . c #DD8105",
".. c #DD8E17",
"X. c #C99A1A",
"o. c #CA9B1B",
"O. c #DD9212",
"+. c #DD9814",
"@. c #D3931C",
"#. c #DB9319",
"$. c #D0981D",
"%. c #E48702",
"&. c #E18705",
"*. c #EC8400",
"=. c #F18401",
"-. c #F08D01",
";. c #F1870C",
":. c #EA9106",
">. c #E19108",
",. c #E49D08",
"<. c #ED9A09",
"1. c #F69602",
"2. c #F89902",
"3. c #F89D03",
"4. c #FC9109",
"5. c #FF990A",
"6. c #E08113",
"7. c #E28414",
"8. c #E78415",
"9. c #E29F13",
"0. c #E69F11",
"q. c #E79C16",
"w. c #E99814",
"e. c #FC9C12",
"r. c #FA9B17",
"t. c #DDB20B",
"y. c #C7A117",
"u. c #D7A315",
"i. c #E0AA07",
"p. c #EFA10F",
"a. c #F0A005",
"s. c #F5A205",
"d. c #F6A30A",
"f. c #EDBB08",
"g. c #EFBE09",
"h. c #EABB0F",
"j. c #F8B303",
"k. c #F0B70D",
"l. c #FFB208",
"z. c #FBBC0E",
"x. c #EDA117",
"c. c #FAAF15",
"v. c #FBA918",
"b. c #EFB219",
"n. c #F2B314",
"m. c #FFB113",
"M. c #F6B61A",
"N. c #F9B51A",
"B. c #FEB31E",
"V. c #FFB81A",
"C. c #D48929",
"Z. c #D69125",
"A. c #D39822",
"S. c #D4952C",
"D. c #CA813A",
"F. c #C8903E",
"G. c #FFBA25",
"H. c #FFBC27",
"J. c #EDCD0D",
"K. c #F5C10C",
"L. c #F6C70C",
"P. c #FFD609",
"I. c #EEDF13",
"U. c #EBD01C",
"Y. c #FAD312",
"T. c #FFED11",
"R. c #FFE41C",
"E. c #FCF018",
"W. c #FCF21E",
"Q. c #FFFF1D",
"!. c #FFC325",
"~. c #FFC92C",
"^. c #FAD72A",
"/. c #FCDF2F",
"(. c #FFC836",
"). c #FACB38",
"_. c #FFD131",
"`. c #FFFE2D",
"'. c #FFE33F",
"]. c #FFE839",
"[. c #FFF431",
"{. c #FFFC38",
"}. c #A68359",
"|. c #FFEB46",
" X c #FFF54B",
/* pixels */
"            - 3 3 1             ",
"        < }.F.S.C.D._ >         ",
"      ) T v.!.G.~._.H.;./       ",
"    ( ~ 6.r.7.F Y ..).|.c./     ",
"  , 4.N Q m 0 w 8 8 s (. XV.;   ",
"  A.C J V q e 6 $ y 7 d '.].Z.  ",
"5 8.v S t # u i & % + @ #.{.B.: ",
"3 R n A O . ' P.^.U.g o a [.M.c ",
"3 Z b K f p -.k./.Q.f.X y.`.b.` ",
"2 ^ t H c.e.s.u.K.h.[ ] R.W.N.l ",
"  q.n G U *.d.z.j.a.L.T.E.Y.w.  ",
"  j 5.M } &.! <.x.:.g.J.I.l.h   ",
"    o.=.D P } n.x.>.i.t.3.E     ",
"      o.1.%.L  .I { ,.2.W       ",
"        x $.0.O.+.9.@.k         ",
"            = 2 3 *             "
};
